# xmcd
#
# Track frame offsets:
#	150
#	16205
#	31382
#	51217
#	67607
#	80010
#	93332
#	109617
#	127897
#	145142
#	161080
#	178902
#
# Disc length: 2549 seconds
#
# Revision: 2
# Processed by: cddbd v1.5.2PL0 Copyright (c) Steve Scherf et al.
# Submitted via: EZCDAudioConverter 8.0.2.1
#
DISCID=9509f30c
DTITLE=COPACABANA VAT - SERTÃO 90 [CD 599.032) - 1990 - VAT COPACABANA
DYEAR=1990
DGENRE=SERTANEJO
TTITLE0=CHITÃOZINHO and XORORÓ - FAZ UM ANO (BY GILMAR SINISTRO)
TTITLE1=LINDOMAR CASTILHO - ENTRE TAPAS E BEIJOS (BY GILMAR SINISTRO)
TTITLE2=BARRERITO - JUVENTUDE QUE PERDI (BY GILMAR SINISTRO)
TTITLE3=ALAN and ALADIM - DONA (BY GILMAR SINISTRO)
TTITLE4=GILBERTO and GILMAR - HOMEM APAIXONADO (BY GILMAR SINISTRO)
TTITLE5=AS MARCIANAS - CHUVAS DE VERÃO (UN CHANT D'AMOUR,UN CHANT DETÉ) (BY GI
TTITLE5=LMAR SINISTRO)
TTITLE6=JOÃO MINEIRO and MARCIANO - SE EU NÃO PUDER TE ESQUECER (BY GILMAR SINIS
TTITLE6=TRO)
TTITLE7=GUTO E HALEY - NO RANCHO FUNDO (BY GILMAR SINISTRO)
TTITLE8=JOÃO RENES E RENY - PORQUE CHORA A TARDE (BY GILMAR SINISTRO)
TTITLE9=TRIO PARADA DURA - TARDE DEMAIS (BY GILMAR SINISTRO)
TTITLE10=DIEGO E THIAGO - CAMINHONEIRO (GENTLE ON MY MIND) (BY GILMAR SINISTRO
TTITLE10=)
TTITLE11=AS MINEIRINHAS - COITADA DE MIM (SANDRA and VALERIA) (BY GILMAR SINISTR
TTITLE11=O)
EXTD=
EXTT0=
EXTT1=
EXTT2=
EXTT3=
EXTT4=
EXTT5=
EXTT6=
EXTT7=
EXTT8=
EXTT9=
EXTT10=
EXTT11=
PLAYORDER=
